<?xml version="1.0" encoding="UTF-8"?>
<svg width="20px" height="19px" viewBox="0 0 20 19" version="1.1" xmlns="http://www.w3.org/2000/svg" xmlns:xlink="http://www.w3.org/1999/xlink">
    <!-- Generator: sketchtool 52.1 (67048) - http://www.bohemiancoding.com/sketch -->
    <title>FEC0F90F-59C0-4E98-BB20-F8D9418A0C28</title>
    <desc>Created with sketchtool.</desc>
    <g id="Full-HD-(1920x1080px)" stroke="none" stroke-width="1" fill="none" fill-rule="evenodd">
        <g id="Landing-Page-2.1" transform="translate(-898.000000, -6971.000000)">
            <g id="Videos" transform="translate(272.000000, 6040.000000)">
                <g id="load-more-videos" transform="translate(626.000000, 928.000000)">
                    <g id="ic_load_more-a76d03bce699d3ca67e1ec5754ae47a2b250c2c3ca340f9e0287a4c56e7e105f" transform="translate(0.000000, 3.000000)">
                        <polygon id="Shape" points="0 0 20 0 20 20 0 20"></polygon>
                        <path d="M18.0125,8.1 C17.6875,8.1 17.4125,7.85 17.325,7.525 C16.5916132,3.99249872 13.48282,1.45747609 9.875,1.45 C6.27187671,1.46337674 3.16991839,3.99707715 2.4375,7.525 C2.35,7.9 1.975,8.15 1.6125,8.05 C1.23895481,7.94638754 1.01678618,7.56314667 1.1125,7.1875 C1.97900582,3.03248575 5.63065501,0.0476141576 9.875,0.025 C14.1240432,0.041731842 17.7825132,3.02791895 18.65,7.1875 C18.7375,7.5625 18.5125,7.95 18.15,8.05 C18.1,8.05 18.05,8.1 18,8.1 L18.0125,8.1 Z" id="Shape" fill="#9EA0A6" fill-rule="nonzero"></path>
                        <path d="M18.25,8.2875 C18.15,8.2875 18.0625,8.2875 17.9625,8.2375 L15.5625,7.1875 C15.1875,7.05 15.0625,6.625 15.1875,6.2375 C15.3375,5.8625 15.75,5.725 16.125,5.8625 L17.875,6.6125 L18.625,4.8125 C18.75,4.4375 19.175,4.3 19.5375,4.4375 C19.9125,4.575 20.0375,5.0125 19.9125,5.3875 L18.8875,7.8625 C18.8,8.05 18.7125,8.1875 18.5125,8.2375 C18.425,8.2875 18.3375,8.2875 18.25,8.2875 Z M10.025,18.7375 C5.77214344,18.7195246 2.11235452,15.7270476 1.25,11.5625 C1.1625,11.1875 1.3875,10.8125 1.75,10.7125 C2.125,10.6125 2.5,10.8375 2.5875,11.225 C3.31477771,14.7578896 6.41805836,17.2978857 10.025,17.3125 C13.6319416,17.2978857 16.7352223,14.7578896 17.4625,11.225 C17.55,10.85 17.925,10.6 18.2875,10.7125 C18.6625,10.8 18.8875,11.1875 18.8,11.5625 C17.9507708,15.7349856 14.2830293,18.7339651 10.025,18.7375 Z" id="Shape" fill="#9EA0A6" fill-rule="nonzero"></path>
                        <path d="M0.7,14.375 C0.6125,14.375 0.5125,14.375 0.425,14.3125 C0.05,14.175 -0.075,13.75 0.05,13.3625 L1.0625,10.9 C1.2125,10.525 1.625,10.375 1.9875,10.525 L4.3875,11.5625 C4.7625,11.7 4.9,12.1375 4.7625,12.5125 C4.625,12.8875 4.2125,13.0375 3.8375,12.8875 L2.0875,12.1375 L1.3375,13.8875 C1.24425029,14.1628496 0.990517912,14.3519051 0.7,14.3625 L0.7,14.375 Z" id="Shape" fill="#9EA0A6" fill-rule="nonzero"></path>
                    </g>
                </g>
            </g>
        </g>
    </g>
</svg>