<?xml version="1.0" encoding="UTF-8"?>
<svg width="18px" height="16px" viewBox="0 0 18 16" version="1.1" xmlns="http://www.w3.org/2000/svg" xmlns:xlink="http://www.w3.org/1999/xlink">
    <!-- Generator: Sketch 52.5 (67469) - http://www.bohemiancoding.com/sketch -->
    <title>icon_print</title>
    <desc>Created with Sketch.</desc>
    <g id="1360x1024px" stroke="none" stroke-width="1" fill="none" fill-rule="evenodd">
        <g id="Step-6.-Estimated-Cost" transform="translate(-729.000000, -300.000000)">
            <g id="Total_price" transform="translate(384.000000, 192.000000)">
                <g id="actions" transform="translate(39.000000, 104.000000)">
                    <g id="print" transform="translate(303.000000, 0.000000)">
                        <g id="icon_print">
                            <rect id="base" x="0" y="0" width="24" height="24"></rect>
                            <g id="ic" transform="translate(4.000000, 5.000000)" stroke="#9EA0A6">
                                <path d="M13,11.5 L13,10 L3,10 L3,11.5 L2,11.5 C0.8954305,11.5 1.3527075e-16,10.6045695 0,9.5 L0,5.5 C-1.3527075e-16,4.3954305 0.8954305,3.5 2,3.5 L14,3.5 C15.1045695,3.5 16,4.3954305 16,5.5 L16,9.5 C16,10.6045695 15.1045695,11.5 14,11.5 L13,11.5 Z" id="Combined-Shape"></path>
                                <rect id="Rectangle" x="3" y="10" width="10" height="4"></rect>
                                <rect id="Rectangle" x="3" y="8.52651283e-14" width="10" height="3"></rect>
                            </g>
                        </g>
                    </g>
                </g>
            </g>
        </g>
    </g>
</svg>