<?xml version="1.0" encoding="UTF-8"?>
<svg width="18px" height="18px" viewBox="0 0 18 18" version="1.1" xmlns="http://www.w3.org/2000/svg" xmlns:xlink="http://www.w3.org/1999/xlink">
    <!-- Generator: sketchtool 52.1 (67048) - http://www.bohemiancoding.com/sketch -->
    <title>DBDEE240-E9B2-49C2-9D1A-107A39A8A02D</title>
    <desc>Created with sketchtool.</desc>
    <g id="Full-HD-(1920x1080px)" stroke="none" stroke-width="1" fill="none" fill-rule="evenodd">
        <g id="Landing-Page-2.1" transform="translate(-1483.000000, -10787.000000)">
            <g id="Futer" transform="translate(126.000000, 10393.000000)">
                <g id="copiright" transform="translate(146.000000, 391.000000)">
                    <g id="social-icons" transform="translate(1160.000000, 0.000000)">
                        <g id="instagram" transform="translate(48.000000, 0.000000)">
                            <rect id="base-.instagram" x="0" y="0" width="24" height="24"></rect>
                            <g id="ic-Instagram" transform="translate(3.000000, 3.000000)" fill="#B1B3B7" fill-rule="nonzero">
                                <path d="M9,1.62396429 C11.4023571,1.62396429 11.6868929,1.63314286 12.6357143,1.67642857 C13.5129286,1.71646429 13.9892857,1.863 14.3063571,1.98621429 C14.6971461,2.13044714 15.0506422,2.3604283 15.3408571,2.65925 C15.6396788,2.94946494 15.86966,3.30296105 16.0138929,3.69375 C16.1371071,4.01078571 16.2836786,4.48717857 16.3236786,5.36439286 C16.3669643,6.31314286 16.3761429,6.59767857 16.3761429,9.00010714 C16.3761429,11.4025357 16.3669643,11.687 16.3236786,12.6358214 C16.2836429,13.5130357 16.1370714,13.9893929 16.0138929,14.3064643 C15.71121,15.0911221 15.091015,15.7113172 14.3063571,16.014 C13.9893214,16.1372143 13.5129286,16.2837857 12.6357143,16.3237857 C11.6871429,16.3670714 11.4026071,16.37625 9,16.37625 C6.59739286,16.37625 6.31296429,16.3670714 5.36428571,16.3237857 C4.48707143,16.28375 4.01071429,16.1371786 3.69364286,16.014 C3.30285336,15.8697682 2.94935702,15.6397869 2.65914286,15.3409643 C2.3603221,15.0507486 2.13034109,14.6972527 1.98610714,14.3064643 C1.86289286,13.9894286 1.71632143,13.5130357 1.67632143,12.6358214 C1.63303571,11.6871071 1.62385714,11.4025357 1.62385714,9.00010714 C1.62385714,6.59767857 1.63303571,6.31321429 1.67632143,5.36439286 C1.71635714,4.48717857 1.86289286,4.01082143 1.98610714,3.69375 C2.13035609,3.30294157 2.3603623,2.94943227 2.65921429,2.65921429 C2.94943,2.36039352 3.30292588,2.13041252 3.69371429,1.98617857 C4.01075,1.86296429 4.48714286,1.71639286 5.36435714,1.67639286 C6.31310714,1.63310714 6.59764286,1.62392857 9.00007143,1.62392857 L9,1.62396429 Z M9.00007143,0.00282142857 C6.55657143,0.00282142857 6.25007143,0.0131785714 5.29057143,0.0569642857 C4.33289286,0.100678571 3.67889286,0.25275 3.10660714,0.475178571 C2.50627138,0.701093972 1.96244004,1.0552425 1.51303571,1.51292857 C1.0552465,1.96230472 0.700999083,2.50613818 0.475,3.1065 C0.25275,3.67882143 0.100678571,4.33282143 0.0571428571,5.2905 C0.0131785714,6.25 0.00282142857,6.5565 0.00282142857,9 C0.00282142857,11.4435 0.0131785714,11.75 0.0571428571,12.7095 C0.100857143,13.6671786 0.252928571,14.3211786 0.475357143,14.8934643 C0.701273572,15.4937995 1.05542196,16.0376307 1.51310714,16.4870357 C1.96251001,16.9447236 2.50634177,17.2988724 3.10667857,17.5247857 C3.679,17.7472143 4.333,17.8992857 5.29064286,17.943 C6.25028571,17.9867857 6.55667857,17.9971429 9.00014286,17.9971429 C11.4436071,17.9971429 11.7501429,17.9867857 12.7096429,17.943 C13.6673214,17.8992857 14.3213214,17.7472143 14.8936071,17.5247857 C16.1021337,17.0573739 17.0575167,16.1019908 17.5249286,14.8934643 C17.7473571,14.3211429 17.8994286,13.6671429 17.9431429,12.7095 C17.9869286,11.7498571 17.9972857,11.4434643 17.9972857,9 C17.9972857,6.55653571 17.9869286,6.25 17.9431429,5.2905 C17.8994286,4.33282143 17.7473571,3.67882143 17.5249286,3.10653571 C17.2990152,2.50619891 16.9448664,1.96236715 16.4871786,1.51296429 C16.0377651,1.05518696 15.4938941,0.70096334 14.8935,0.475 C14.3211786,0.25275 13.6671786,0.100678571 12.7095,0.0571428571 C11.75,0.0131785714 11.4435,0.00282142857 9,0.00282142857 L9.00007143,0.00282142857 Z" id="Shape"></path>
                                <path d="M9,4.37982143 C6.44834583,4.37982143 4.37982143,6.44834583 4.37982143,9 C4.37982143,11.5516542 6.44834583,13.6201786 9,13.6201786 C11.5516542,13.6201786 13.6201786,11.5516542 13.6201786,9 C13.6201786,6.44834583 11.5516542,4.37982143 9,4.37982143 Z M9,11.9990357 C7.34368296,11.999016 6.00098685,10.6562932 6.001,8.99997619 C6.00101315,7.34365915 7.34373058,6.00095771 9.00004762,6.00096429 C10.6563647,6.00097086 11.9990714,7.34368296 11.9990714,9 C11.9990517,10.6563275 10.6563275,11.9990357 9,11.9990357 Z" id="Shape"></path>
                                <circle id="Oval" cx="13.8027143" cy="4.19728571" r="1.07964286"></circle>
                            </g>
                        </g>
                    </g>
                </g>
            </g>
        </g>
    </g>
</svg>