<?xml version="1.0" encoding="UTF-8"?>
<svg width="18px" height="18px" viewBox="0 0 18 18" version="1.1" xmlns="http://www.w3.org/2000/svg" xmlns:xlink="http://www.w3.org/1999/xlink">
    <!-- Generator: sketchtool 52.1 (67048) - http://www.bohemiancoding.com/sketch -->
    <title>9B7D4576-4422-4482-9021-84C59F970E26</title>
    <desc>Created with sketchtool.</desc>
    <g id="Full-HD-(1920x1080px)" stroke="none" stroke-width="1" fill="none" fill-rule="evenodd">
        <g id="Landing-Page-2.1" transform="translate(-1580.000000, -10787.000000)">
            <g id="Futer" transform="translate(126.000000, 10393.000000)">
                <g id="copiright" transform="translate(146.000000, 391.000000)">
                    <g id="social-icons" transform="translate(1160.000000, 0.000000)">
                        <g id="kununu" transform="translate(144.000000, 0.000000)">
                            <rect id="base-.kunnu" x="0" y="0" width="24" height="24"></rect>
                            <g id="kunnu" transform="translate(4.000000, 3.000000)" fill="#B1B3B7" fill-rule="nonzero">
                                <path d="M12.2934601,17.543523 C12.2934601,17.8026045 12.0914398,18 11.8418853,18 L9.13243669,18 C8.88288221,18 8.68086191,17.7902673 8.68086191,17.543523 L8.68086191,14.6689513 L8.66897837,13.74366 C8.66897837,12.7443454 7.86089719,11.9300891 6.88644637,11.9300891 L5.92387909,11.9300891 C4.93754472,11.9300891 4.01882512,12.7443454 4.01882512,13.74366 L3.99505803,17.543523 C3.99505803,17.8026045 3.79303773,18 3.54348325,18 L0.454626773,18 C0.205072293,18 0.00305200019,17.7902673 0.00305200019,17.543523 L0.00305200019,0.456477039 C0.00305200019,0.209732694 0.205072293,-1.22790667e-13 0.454626773,-1.22790667e-13 L3.53159971,-1.24344979e-13 C3.78115419,-1.24344979e-13 3.98317448,0.209732694 3.98317448,0.456477039 L3.98317448,8.52501714 C4.55358472,8.32762166 5.28216757,8.2165867 5.91199554,8.2165867 L6.82702864,8.2165867 C7.81336301,8.20424949 8.62144418,7.38999315 8.62144418,6.39067855 L8.68086191,5.46538725 C8.71651255,5.25565456 8.9066493,5.08293352 9.13243669,5.08293352 L11.8418853,5.08293352 C12.0676727,5.08293352 12.2459259,5.24331734 12.2934601,5.46538725 L12.3053436,6.39067855 C12.3053436,7.7847841 11.7943511,9.06785469 10.9387358,10.0424949 C11.8062347,11.0294722 12.3409943,12.3248801 12.3409943,13.74366 L12.3409943,14.6689513 L12.2934601,17.543523 Z" id="path3779" transform="translate(6.172023, 9.000000) rotate(-360.000000) translate(-6.172023, -9.000000) "></path>
                                <path d="M15.3231055,4.05118307 L14.6396628,4.7256105 C14.2919464,5.08121768 13.7164158,5.08121768 13.3686993,4.7256105 L13.2607873,4.61524965 C12.9130709,4.25964246 12.9130709,3.69557589 13.2607873,3.35223102 L13.8962691,2.71459054 L13.9322397,2.67780359 C14.0281615,2.59196738 14.1720442,2.59196738 14.267966,2.67780359 L14.3518975,2.76363981 C14.4478193,2.84947603 14.4478193,3.00888615 14.3638877,3.09472236 L13.6804451,3.76914979 C13.5605429,3.87951064 13.5605429,4.07570771 13.6804451,4.18606856 L13.7883571,4.29642941 C13.9082593,4.40679026 14.0881126,4.41905258 14.2080148,4.29642941 L14.8914575,3.62200199 C14.9873793,3.53616577 15.1312619,3.53616577 15.2271837,3.62200199 L15.3111153,3.7078382 C15.407037,3.81819905 15.407037,3.96534686 15.3231055,4.05118307 Z M15.3231055,1.26763716 L15.2391739,1.35347338 C15.1432521,1.4393096 14.9993695,1.45157191 14.9034477,1.3657357 L14.2200051,0.691308274 C14.1001029,0.580947423 13.9202495,0.580947423 13.8003473,0.691308274 L13.6924353,0.801669125 C13.5725331,0.912029976 13.5725331,1.10822704 13.6924353,1.2185879 L14.375878,1.89301532 C14.4717997,1.99111385 14.4598095,2.13826165 14.375878,2.22409787 L14.2919464,2.30993409 C14.1960246,2.39577031 14.052142,2.40803262 13.9682104,2.30993409 L13.2847678,1.63550667 C12.9370513,1.2921618 12.9250611,0.715832908 13.2847678,0.372488038 L13.3926798,0.262127186 C13.7403962,-0.0934800003 14.3039366,-0.0812176835 14.6636433,0.262127186 L15.2751446,0.899767659 L15.3111153,0.93655461 C15.407037,1.02239083 15.407037,1.18180095 15.3231055,1.26763716 Z M17.7331401,4.62751196 L17.6252281,4.73787281 C17.2775116,5.09348 16.701981,5.08121768 16.3542645,4.73787281 L15.7187828,4.10023234 L15.6828121,4.06344539 C15.5868904,3.97760917 15.5868904,3.81819905 15.6828121,3.73236284 L15.7667437,3.64652662 C15.8626655,3.5606904 16.0065481,3.54842809 16.1024699,3.6342643 L16.7859125,4.30869173 C16.9058148,4.41905258 17.0856681,4.41905258 17.2055703,4.30869173 L17.3134823,4.19833087 C17.4333845,4.07570771 17.4333845,3.89177296 17.3134823,3.7814121 L16.6300397,3.10698468 C16.5341179,3.02114846 16.5461081,2.86173835 16.6300397,2.77590213 L16.7139712,2.69006591 C16.809893,2.60422969 16.9537756,2.59196738 17.0377072,2.69006591 L17.7211498,3.36449333 C18.0808565,3.7078382 18.0808565,4.27190478 17.7331401,4.62751196 Z M17.7331401,1.63550667 L17.0976583,2.27314714 L17.0616876,2.30993409 C16.9657659,2.39577031 16.8218832,2.39577031 16.7259614,2.30993409 L16.6420299,2.22409787 C16.5461081,2.13826165 16.5461081,1.97885154 16.6300397,1.89301532 L17.3134823,1.2185879 C17.4333845,1.10822704 17.4333845,0.924292293 17.3134823,0.801669125 L17.2055703,0.691308274 C17.0856681,0.580947423 16.9058148,0.580947423 16.7859125,0.691308274 L16.1024699,1.3657357 C16.0065481,1.46383423 15.8626655,1.45157191 15.7667437,1.3657357 L15.6828121,1.27989948 C15.5868904,1.18180095 15.5868904,1.04691546 15.6828121,0.948816927 L16.3662548,0.262127186 C16.7139712,-0.0812176835 17.2895019,-0.0934800003 17.6372183,0.262127186 L17.7451303,0.372488038 C18.0928467,0.728095224 18.0808565,1.2921618 17.7331401,1.63550667 Z" id="Combined-Shape" transform="translate(15.500000, 2.500000) rotate(-360.000000) translate(-15.500000, -2.500000) "></path>
                            </g>
                        </g>
                    </g>
                </g>
            </g>
        </g>
    </g>
</svg>