<?xml version="1.0" encoding="UTF-8"?>
<svg width="16px" height="18px" viewBox="0 0 16 18" version="1.1" xmlns="http://www.w3.org/2000/svg" xmlns:xlink="http://www.w3.org/1999/xlink">
    <!-- Generator: sketchtool 52.1 (67048) - http://www.bohemiancoding.com/sketch -->
    <title>CBA7ED25-ECD3-48E4-9CB4-3D70AEE52DCE</title>
    <desc>Created with sketchtool.</desc>
    <g id="Full-HD-(1920x1080px)" stroke="none" stroke-width="1" fill="none" fill-rule="evenodd">
        <g id="Landing-Page-2.1" transform="translate(-1532.000000, -10787.000000)">
            <g id="Futer" transform="translate(126.000000, 10393.000000)">
                <g id="copiright" transform="translate(146.000000, 391.000000)">
                    <g id="social-icons" transform="translate(1160.000000, 0.000000)">
                        <g id="x" transform="translate(96.000000, 0.000000)">
                            <rect id="base-.x" x="0" y="0" width="24" height="24"></rect>
                            <g id="ic-x" transform="translate(4.000000, 3.000000)" fill="#B1B3B7" fill-rule="nonzero">
                                <path d="M12.9454545,-6.10622664e-16 C12.5818182,-6.10622664e-16 12.3636364,0.218181818 12.2181818,0.509090909 C12.2181818,0.509090909 6.61818182,10.6909091 6.4,10.9818182 C6.4,10.9818182 10.0494164,17.4909091 10.0494164,17.4909091 C10.1948709,17.7090909 10.4130527,18 10.7766891,18 L13.3948709,18 C13.5403255,18 13.68578,17.9272727 13.7585073,17.8545455 C13.8312346,17.7090909 13.8312346,17.5636364 13.7585073,17.4181818 L10.1818182,10.9818182 C10.1818182,10.9818182 12.0969697,7.51515152 15.9272727,0.581818182 C16,0.436363636 16,0.290909091 15.9272727,0.145454545 C15.8545455,0.0727272727 15.7090909,-6.10622664e-16 15.5636364,-6.10622664e-16 L12.9454545,-6.10622664e-16 Z" id="Shape"></path>
                                <path d="M2.03636364,4.00840693 C1.89090909,4.00840693 1.74545455,4.0811342 1.67272727,4.15386147 C1.6,4.29931602 1.6,4.44477057 1.67272727,4.59022511 L3.41818182,7.41818182 C3.41818182,7.41818182 2.52121212,9.04242424 0.727272727,12.2909091 C0.654545455,12.4363636 0.654545455,12.5818182 0.727272727,12.7272727 C0.8,12.8 0.945454545,12.8727273 1.09090909,12.8727273 L3.63636364,12.8727273 C4,12.8727273 4.21818182,12.5818182 4.36363636,12.3636364 C4.36363636,12.3636364 7.05454545,7.56363636 7.2,7.41818182 C7.2,7.41818182 5.38181818,4.51749784 5.38181818,4.51749784 C5.23636364,4.29931602 5.01818182,4.00840693 4.65454545,4.00840693 L2.03636364,4.00840693 Z" id="Shape"></path>
                            </g>
                        </g>
                    </g>
                </g>
            </g>
        </g>
    </g>
</svg>