<?xml version="1.0" encoding="UTF-8"?>
<svg width="25px" height="18px" viewBox="0 0 25 18" version="1.1" xmlns="http://www.w3.org/2000/svg" xmlns:xlink="http://www.w3.org/1999/xlink">
    <!-- Generator: sketchtool 52.1 (67048) - http://www.bohemiancoding.com/sketch -->
    <title>68AEEF65-0616-4F3C-8F79-D1A7CBFC450A</title>
    <desc>Created with sketchtool.</desc>
    <g id="Full-HD-(1920x1080px)" stroke="none" stroke-width="1" fill="none" fill-rule="evenodd">
        <g id="Landing-Page-2.1" transform="translate(-1623.000000, -10787.000000)">
            <g id="Futer" transform="translate(126.000000, 10393.000000)">
                <g id="copiright" transform="translate(146.000000, 391.000000)">
                    <g id="social-icons" transform="translate(1160.000000, 0.000000)">
                        <g id="youtube" transform="translate(191.000000, 0.000000)">
                            <rect id="base-.youtube" x="0" y="0" width="24" height="24"></rect>
                            <g id="ic-youtube" transform="translate(0.000000, 3.000000)" fill="#B1B3B7" fill-rule="nonzero" opacity="0.800000012">
                                <path d="M23.5017013,2.81647059 C24.0291603,4.82823529 24.0088734,9.02117647 24.0088734,9.02117647 C24.0088734,9.02117647 24.0088734,13.1929412 23.5017013,15.2047059 C23.2176849,16.3058824 22.3859226,17.1741176 21.3310046,17.4705882 C19.4037505,18 12.3141393,18 12.3141393,18 C12.3141393,18 4.62540984,18 2.67786885,17.4494118 C1.62295082,17.1529412 0.791188525,16.2847059 0.507172131,15.1835294 C3.13403555e-13,13.1929412 0,9 0,9 C0,9 3.13403555e-13,4.82823529 0.507172131,2.81647059 C0.791188525,1.71529412 1.6432377,0.825882353 2.67786885,0.529411765 C4.60512295,4.27900052e-13 12.3141393,-1.32557268e-16 12.3141393,-1.32557268e-16 C12.3141393,-1.32557268e-16 19.4037505,-5.01172486e-13 21.3310046,0.550588235 C22.3859226,0.847058824 23.2176849,1.71529412 23.5017013,2.81647059 Z M9.85942623,12.8541176 L16.270082,9 L9.85942623,5.14588235 L9.85942623,12.8541176 Z" id="Combined-Shape"></path>
                            </g>
                        </g>
                    </g>
                </g>
            </g>
        </g>
    </g>
</svg>